<?xml version="1.0" encoding="utf-8"?>
<!-- Generator: Adobe Illustrator 22.0.1, SVG Export Plug-In . SVG Version: 6.00 Build 0)  -->
<svg version="1.1" id="Layer_1" xmlns="http://www.w3.org/2000/svg" xmlns:xlink="http://www.w3.org/1999/xlink" x="0px" y="0px"
	 viewBox="0 0 512 512" style="enable-background:new 0 0 512 512;" xml:space="preserve">
<style type="text/css">
	.st0{fill:#FF0000;}
</style>
<path class="st0" d="M170.7,216.5l-29.1,29.1l93.6,93.6l208-208l-29.1-29.1L235.2,279.9L170.7,216.5L170.7,216.5z M422.4,256
	c0,91.5-74.9,166.4-166.4,166.4S89.6,347.5,89.6,256S164.5,89.6,256,89.6c15.6,0,31.2,2.1,45.8,6.2L334,63.6
	C310.1,53.2,284.1,48,256,48C141.6,48,48,141.6,48,256s93.6,208,208,208s208-93.6,208-208H422.4z"/>
</svg>
